<mxfile host="app.diagrams.net" agent="Mozilla/5.0 (Windows NT 10.0; Win64; x64) AppleWebKit/537.36 (KHTML, like Gecko) Chrome/134.0.0.0 Safari/537.36" version="26.1.0">
  <diagram name="Page-1" id="ISSYntMiYJoQ8lxd-eJz">
    <mxGraphModel dx="1795" dy="1443" grid="0" gridSize="10" guides="1" tooltips="1" connect="1" arrows="1" fold="1" page="0" pageScale="1" pageWidth="827" pageHeight="1169" math="0" shadow="0">
      <root>
        <mxCell id="0" />
        <mxCell id="1" parent="0" />
        <mxCell id="RcW4qerFGk2ffHJlq8MV-4" value="" style="group" parent="1" vertex="1" connectable="0">
          <mxGeometry x="218" y="-135" width="274" height="332" as="geometry" />
        </mxCell>
        <mxCell id="RcW4qerFGk2ffHJlq8MV-5" value="" style="rounded=0;whiteSpace=wrap;html=1;" parent="RcW4qerFGk2ffHJlq8MV-4" vertex="1">
          <mxGeometry width="274" height="332" as="geometry" />
        </mxCell>
        <mxCell id="RcW4qerFGk2ffHJlq8MV-6" value="Backend" style="text;html=1;align=center;verticalAlign=middle;whiteSpace=wrap;rounded=0;" parent="RcW4qerFGk2ffHJlq8MV-4" vertex="1">
          <mxGeometry width="78" height="31" as="geometry" />
        </mxCell>
        <mxCell id="RcW4qerFGk2ffHJlq8MV-7" value="" style="group" parent="1" vertex="1" connectable="0">
          <mxGeometry x="-162" y="-133" width="274" height="332" as="geometry" />
        </mxCell>
        <mxCell id="RcW4qerFGk2ffHJlq8MV-8" value="" style="rounded=0;whiteSpace=wrap;html=1;" parent="RcW4qerFGk2ffHJlq8MV-7" vertex="1">
          <mxGeometry width="274" height="332" as="geometry" />
        </mxCell>
        <mxCell id="RcW4qerFGk2ffHJlq8MV-9" value="Admin web" style="text;html=1;align=center;verticalAlign=middle;whiteSpace=wrap;rounded=0;" parent="RcW4qerFGk2ffHJlq8MV-7" vertex="1">
          <mxGeometry width="78" height="31" as="geometry" />
        </mxCell>
        <mxCell id="LFGOv6pLB-MNj9Chn9q--6" value="Traffic Operators" style="ellipse;whiteSpace=wrap;html=1;aspect=fixed;" vertex="1" parent="1">
          <mxGeometry x="19" y="-558.5" width="80" height="80" as="geometry" />
        </mxCell>
        <mxCell id="LFGOv6pLB-MNj9Chn9q--9" style="edgeStyle=orthogonalEdgeStyle;rounded=0;orthogonalLoop=1;jettySize=auto;html=1;exitX=0;exitY=0.5;exitDx=0;exitDy=0;entryX=1;entryY=0.5;entryDx=0;entryDy=0;" edge="1" parent="1" source="LFGOv6pLB-MNj9Chn9q--7" target="LFGOv6pLB-MNj9Chn9q--6">
          <mxGeometry relative="1" as="geometry" />
        </mxCell>
        <mxCell id="LFGOv6pLB-MNj9Chn9q--10" style="edgeStyle=orthogonalEdgeStyle;rounded=0;orthogonalLoop=1;jettySize=auto;html=1;exitX=1;exitY=0.5;exitDx=0;exitDy=0;" edge="1" parent="1" source="LFGOv6pLB-MNj9Chn9q--7" target="LFGOv6pLB-MNj9Chn9q--8">
          <mxGeometry relative="1" as="geometry" />
        </mxCell>
        <mxCell id="LFGOv6pLB-MNj9Chn9q--7" value="User" style="ellipse;whiteSpace=wrap;html=1;aspect=fixed;" vertex="1" parent="1">
          <mxGeometry x="169" y="-558.5" width="80" height="80" as="geometry" />
        </mxCell>
        <mxCell id="LFGOv6pLB-MNj9Chn9q--8" value="Traffic planners" style="ellipse;whiteSpace=wrap;html=1;aspect=fixed;" vertex="1" parent="1">
          <mxGeometry x="319" y="-558.5" width="80" height="80" as="geometry" />
        </mxCell>
        <mxCell id="LFGOv6pLB-MNj9Chn9q--11" value="Increase situational awareness" style="rounded=1;whiteSpace=wrap;html=1;" vertex="1" parent="1">
          <mxGeometry x="-162" y="-618.5" width="120" height="60" as="geometry" />
        </mxCell>
        <mxCell id="LFGOv6pLB-MNj9Chn9q--12" value="Enhance decision making" style="rounded=1;whiteSpace=wrap;html=1;" vertex="1" parent="1">
          <mxGeometry x="-162" y="-468" width="120" height="60" as="geometry" />
        </mxCell>
        <mxCell id="LFGOv6pLB-MNj9Chn9q--13" value="" style="group" vertex="1" connectable="0" parent="1">
          <mxGeometry x="615" y="-139" width="274" height="332" as="geometry" />
        </mxCell>
        <mxCell id="LFGOv6pLB-MNj9Chn9q--14" value="" style="rounded=0;whiteSpace=wrap;html=1;" vertex="1" parent="LFGOv6pLB-MNj9Chn9q--13">
          <mxGeometry width="274" height="332" as="geometry" />
        </mxCell>
        <mxCell id="LFGOv6pLB-MNj9Chn9q--15" value="DB" style="text;html=1;align=center;verticalAlign=middle;whiteSpace=wrap;rounded=0;" vertex="1" parent="LFGOv6pLB-MNj9Chn9q--13">
          <mxGeometry width="44" height="31" as="geometry" />
        </mxCell>
      </root>
    </mxGraphModel>
  </diagram>
</mxfile>
